<svg xmlns="http://www.w3.org/2000/svg" viewBox="0 0 2500 1124.84"><defs><style>.cls-1{fill:#fff;}</style></defs><title>ghibli-white</title><g id="Capa_2" data-name="Capa 2"><g id="Capa_1-2" data-name="Capa 1"><path class="cls-1" d="M470.22,686.76V685.1h-1.66l-8.86-1.67Z"/><path class="cls-1" d="M979.18,958.68c10.53,0,19.94,4.43,26,13.85l15.51-9.42c-9.41-15.5-23.26-22.7-41.54-22.7-12.73,0-23.25,2.77-31,10.52-10.52,7.75-15.51,17.18-15.51,29.37,0,16.61,12.75,28.8,35.45,39.86l11.08,4.44c16.61,7.75,26,17.16,26,29.34l-7.75,21.6-21.6,8.87-21.6-7.2-7.76-21.6L926.57,1060c1.66,12.74,6.09,23.25,15.5,31,9.43,7.19,19.95,12.19,32.13,12.19,13.83,0,26-5,37.11-13.85l13.84-35.44c0-19.93-12.19-35.44-38.78-46l-12.19-5c-13.85-6.09-21.61-13.84-21.61-22.7,0-6.09,3.34-11.08,9.43-15.5Zm110.23,2.77h37.08V943.17h-95.24v18.28h38.21v138.46h20Zm164.48,82V943.17h-20v92.49c0,32.11-12.73,48.72-38.21,48.72-24.92,0-37.11-16.61-37.11-48.72V943.17h-19.94v100.25c0,16.61,4.43,32.11,15.5,43.2,10.53,10.52,24.36,16.61,41.54,16.61,18.27,0,32.11-6.09,42.64-16.61,10.53-11.09,15.53-26.59,15.53-43.2m58.7-100.25h-33.77v156.74h32.11l-4.42-18.29h-7.75V961.45h7.75c48.73,0,73.67,20.5,73.67,60.37s-24.92,59.8-73.67,59.8l4.42,18.29c26,0,47.64-6.1,62.59-20,17.16-13.84,26.59-33.78,26.59-59.81,0-24.92-9.43-44.87-26.59-58.7-16.61-12.18-36.56-18.28-60.93-18.28m125.73,0h-19.94v156.74h19.94Zm182.76,78.65c0-23.26-7.75-41.54-24.36-57-17.17-17.17-35.45-24.37-58.15-24.37-23.27,0-41.54,7.2-57,24.37L1493.72,977c12.18-12.19,27.7-18.29,44.86-18.29,18.27,0,33.79,6.1,46,18.29a67.93,67.93,0,0,1,16.62,44.86,62.41,62.41,0,0,1-62.59,62.58c-17.16,0-31-6.09-43.2-18.28a61.52,61.52,0,0,1-18.28-44.3A67.9,67.9,0,0,1,1493.72,977l-12.19-12.19c-17.18,15.5-24.93,33.78-24.93,57,0,22.7,7.75,42.64,24.93,58.14,15.5,15.51,33.77,23.26,57,23.26,22.7,0,42.63-7.75,58.15-23.26,16.61-15.49,24.36-35.43,24.36-58.14M1821,983.06l13.83-12.2c-17.16-19.94-37.11-30.46-63.13-30.46-22.7,0-41.54,7.2-58.15,24.37-15.5,15.5-23.25,33.78-23.25,57q0,34.05,23.25,56.48c15.5,17.18,33.78,24.93,55.38,24.93s39.87-7.75,53.73-21.61,21.6-32.11,21.6-53.71v-6.09h-63.14v16.61h41.54l-17.18,34.33-35.43,13.84c-16.63,0-30.48-6.64-42.65-20.49s-18.83-27.69-18.83-44.3a62.39,62.39,0,0,1,18.83-44.87c12.18-13.85,27.7-19.95,44.31-19.95,19.92,0,37.09,9.47,49.29,26.08m39.86-39.89v156.74h19.95V1024.6h75.32v75.31h18.26V943.17h-18.26v63.14h-75.32V943.17Zm161.17,156.74V943.17h-19.94v156.74Zm47.64-156.74h-19.94v156.74h37.1l38.23-8.86c11.07-7.77,17.16-20.5,17.16-34.34l-9.41-26a36.67,36.67,0,0,0-22.7-13.84v-1.1c10.52-5,16.61-15.51,16.61-29.36,0-29.35-18.29-43.2-57-43.2v17.18h5c22.7,0,33.79,8.86,33.79,26,0,16.61-11.09,26-33.79,26h-5v15.51h12.74c26,0,39.87,8.86,39.87,27.69,0,18.27-12.19,27.68-37.11,27.68h-15.5V960.35m94.15,139.56h67.56v-18.28h-49.29V943.17h-18.27Zm98,0V943.17h-19.93v156.74ZM947.21,683.43v24.92h114.1c-11.09,30.47-29.37,58.15-54.28,82.52-22.71,23.26-46,38.78-72,47.64L950.53,859c30.46-12.75,59.81-33.79,87.5-66.46l67.56,67.57,20-21.61-73.66-64.25c19.94-27.69,35.44-58.14,43.19-90.83Zm255.31,38.77h77c-5,22.71-13.83,41.53-26.57,58.15l-50.4-32.12-17.18,16.62,51,33.77c-27.7,23.26-58.72,38.79-93.6,44.86l13.83,21.62c87.52-19.94,139.58-75.32,153.42-164.49h-93.6l12.18-23.26-26-6.1c-15.5,39.87-39.86,69.22-73.66,85.85l16.61,18.82Zm296.31,1.11-24.93-10.53c-13.83,41.54-30.46,72-53.16,89.18-19.93,16.61-52.61,26-93.6,29.35l6.09,26c47.64-5,82.53-18.84,109.11-39.88,21-20,39.86-51,56.49-94.16m9.41-27.69-10.51-32.14-18.84,3.34,12.18,33.78ZM1323.82,729.4l-9.41,23.26L1375.88,777l9.41-24.36Zm18.27-48.74-10.52,22.7A388.86,388.86,0,0,1,1393,726.61l10.53-23.25Zm106.34-11.08L1458.94,705l18.29-4.43-10.53-35.45Zm294.65,11.08-10.54,22.7a266.76,266.76,0,0,1,59.81,23.25l12.2-23.25Zm-18.29,48.74-10.52,23.26L1775.74,777l10.53-24.36c-12.19-7.75-32.13-15.51-61.48-23.26m173.9-6.09-23.25-10.53c-13.85,41.54-32.12,72-53.72,89.18-19.94,16.61-52.07,26-93.6,29.35l6.08,26c47.64-5,83.08-18.84,107.45-39.88,23.27-20,41.54-51,57-94.16m-7.75-22.71,18.28-5-10.53-32.14-18.82,3.34Zm-31,4.43,18.83-4.43-11.07-35.45-18.28,4.43Zm255.32-15.51-9.41-30.46-18.28,4.42,9.41,31ZM2077,692.85l7.2-1.67-8.86-30.47-19.94,4.42,8.87,27.7H1924.72V717.2h138.44c-5,41.53-21.6,73.66-50.95,94.15L1943,835.71l13.84,24.37c84.73-18.28,129-73.66,133.48-167.26H2077m196.63-15.49h-26.59v93.6c0,26.59-8.86,44.87-27.14,55.39L2149,840.16l7.77,24.92,52-9.41L2241,840.16c21.6-16.61,32.68-42.64,32.68-79.75V677.33m-110.75,3.33h-24.94V800.3h24.94Zm-645.23,27.69v24.36h93.6c-17.17,31-47.63,61.49-92.5,92.49l13.85,21c31-19.94,55.39-42.64,74.22-65.9l19.38-27.69V861.77h24.93V732.71h49.29V708.35h-51V672.91H1626.2v35.44ZM2500,901.63v-2.76H702.27v2.76ZM722.21,334.52v-2.77H702.27l-4.44,2.77v1.67l10.53-1.67,11.07,1.67ZM473.54,536.11l-1.67-1.66V530l-1.65-5v-2.77l-2.77-6.1-1.66-5-1.67-1.1v-3.33l-1.66-1.66L459.7,499,458,497.9l-2.78-5L452,490.14l-24.38-7.75-20.48,1.66-10.53,3.32-7.75,5.54-1.67,3.33L386,497.9l-1.67,3.32-1.65,1.12V504l-1.66,1.1v1.66L380,508.42v4.43l-1.66,3.32v4.44l-1.67,3.31v2.78H375v7.75l-1.66,4.44-2.78,3.31v1.66h1.68L375,548.3v13.85h1.66v1.66l1.67,2.75v1.66l2.77,4.45,3.31-2.77v-1.68l-1.65-2.75v-6.1l-1.66-1.66v-21.6l1.66-1.66v-2.78h1.65V519l1.67-1.11v-5l1.1-1.66v-4.43h1.67l3.31-5.54,2.78-3.32,24.92-9.43,14.95,1.67,9.42,4.43,6.1,6.65H452v1.12l4.42,8.85,1.67,1.66v2.21l1.66,2.78,1.66,1.11,1.1,5V525l1.66,1.66v5l1.67,1.12v6.1l1.66,6.65v7.18l-1.66,3.34-3.33,4.41-2.76,1.68L452,568.22l-7.76,4.45-18.27,7.75-9.42,1.66-16.61-2.77-5-1.66h-1.11l-3.32-3.32L386,571.56l-1.67-1.66-3.31,2.77,13.84,11.08,9.41,2.76,12.19,1.66,23.26-6.09,16.61-9.41,11.08-8.86,2.77-4.44,1.65-1.66h9.42l1.11-3.32L478,551.61l-2.76-3.31-1.67-2.76ZM289.11,517.84V519l2.78,1.66,1.66-2.77v-1.67l1.66-3.32v-2.76l1.65-3.33V504l1.66-5v-1.1l-1.66-1.66-1.65,1.66V499h-1.66v5h-1.66v6.09h-1.12v1.1Zm15.5-6.65h-5l-1.12,3.87,1.12,2.78H303l1.65-2.78Zm7.21,5h-4.43v1.67l3.33,2.77,1.1-1.66Zm9.43,2.78h-2.78l-1.66,3.32,1.66,1.65,2.78,1.12,1.65-1.12v-3.31Z"/><path class="cls-1" d="M388.81,532.78V548.3l1.66,1.65,4.43,6.11h7.75l3.32-1.68,2.78-4.43V530l-4.44,4.43,1.66,1.66-1.66,2.77-1.66-1.11v-3.32h1.66l4.44-4.43-1.66-5L406,522.27,402.65,519l-6.09,1.66-6.09,6.09V530ZM235.39,576v-1.65l-1.65-2.77-4.44-3.34-9.41,1.68-1.67,2.77-1.65,1.66v3.32l-1.11,1.66,6.09,2.77,12.19-2.77Zm167.26,59.83-1.66,5v1.12l5,5,6.09-5-1.66-1.12,33.79,1.12v1.66H419.82l-7.76-1.66-6.09,5,19.95,2.78,137.9,9.41,9.41,2.77h9.42l30.46,6.09h7.75l1.66-1.1-3.32-5-22.7-4.43-21.6-1.67L561.05,653Zm-30.45,31H352.25l1.11,1.1,7.75,5,32.68,2.76,32.13,7.76v-2.77l-5-5L406,674.57l-13.85-5Z"/><path class="cls-1" d="M622.52,725V722.2l-3.32-3.33-7.77-4.42-1.1,6.08v1.67H594.82l-24.91-7.75-8.86-1.67L482.4,689.52l-7.19-2.76,12.19,1.66,19.92,6.09h7.2l88.06,22.7,7.75,3.32,1.1-6.08-48.72-12.19-9.41-3.33L401,663.48l-4.43-1.65-13.84-2.77h-6.1l-10.52-3.33-15.51,1.67-1.67,1.66,1.67,2.77,4.43-2.77,7.75,2.77,20,3.32,11.07,4.43,34.88,5,1.68,1.1L442.54,679l-4.44,1.65-3.33,4.44h1.67l136.79,37.1,38.2,6.1ZM223.21,697.28v-2.77l-3.32-3.33-7.75,1.67-1.67,1.66v1.11Zm170.58,18.83v6.09l6.1,4.42,4.42-4.42-4.42-3.33,1.1-1.66,18.83,6.1h2.77l72.56,31,4.42,1.66,21.6,12.18v1.66h-1.66L422.59,729.4l-6.09-1.1-12.19-6.1-4.42,4.42,84.17,32.13,1.68,1.66,9.41,4.44,7.75,1.66,28.79,12.17,5,1.67,8.86,1.66,1.68-1.66-6.1-4.43-6.1-6.1L502.9,749.88l-9.41-3.31-6.09-3.32-78.65-28.8-12.19-1.67Zm-57,99.69-1.66-1.67-4.43-1.66h-3.32l1.66,6.09,9.41,5,4.43,2.78,4.42,1.66,1.66,3.33v1.11l10.53,5,6.65,4.42h1.1l3.32,4.43,2.78,6.08v2.23l3.34,1.11,4.42,4.43,5,3.32,2.77,6.09,1.66,1.66h1.67l4.42,6.09L410.4,891.1v1.66l1.66,1.11v2.23l2.78,2.77V900l3.32,3.33V905l1.68,1.66,1.1,4.43,1.66,1.66,1.66,7.75v2.78l1.68,6.08v3.33l1.66,2.77,2.77,3.33,1.67,2.77v1.67l4.42,4.42v1.66l1.66,1.67v4.42l1.67,3.33,1.66,4.42v6.1l13.84,15.5,1.11,7.75v27.69l1.66,2.77v3.34l1.66,1.66v8.86l-1.66,1.67v3.32l6.09,4.43v3.32l-1.66,4.43V1060l1.66,1.67,3.32-6.09V1054l1.12-1.67v-4.42l-2.78-3.33,1.66-8.86h-1.66v-9.41l-1.66-4.43v-11.08l-1.66-10.53v-1.66l1.66-3.33V984.72l-15.5-15.5c-1.11-1.11-2.78-2.78-1.11-6.1l-1.67-7.75v-1.1l-1.66-3.34v-3.32l-1.66-1.11-1.11-3.33-5-4.42v-1.67l-1.67-1.66-1.1-2.77L432,926.56V924.9l-1.66-3.33v-7.76l-1.67-2.76v-1.12h-1.1v-3.32L425.92,905l-3.33-5-1.67-2.78-2.77-3.32v-1.11l-1.66-1.67v-1.62l-4.43-3.33V885l-12.19-12.19-1.66-3.32-7.75-7.75-3.32-4.43v-1.66l-1.1-1.11h-1.67l-3.32-3.33-2.78-5v-2.78L375,840.15l-1.68-2.77-2.77-1.67-13.84-4.43L352.24,828h1.11v-2.75l-4.43-3.33Zm-138.45,123c-4.44-1.67-10.54,0-18.29,6.08l-3.32,2.78-8.87,3.32-7.75,7.75-15.5,10.54-1.66,3.33-7.76,7.75-1.1,2.77-1.68,1.66v3.33l2.78,2.77,24.92-1.66,8.87-1.11h5l4.43,2.77,4.42,4.43,6.09,5,3.32,4.43,4.43,4.42,1.67,3.33,3.33,3.33,1.1,2.77v1.66l3.34,2.77,1.66,5,1.66,1.66,8.86,4.43,3.33-3.34h1.66V1008h1.11v-6.08l1.67-1.67v-3.32l-1.67-2.78v-6.08l-1.11-5v-4.42h-1.66v-4.43l-1.66-1.66-3.33,1.66,1.66,8.86v9.42l1.67,4.42v7.75h-1.67v17.17l-1.66,2.78-2.77,1.66-4.43-4.42v-1.68l-1.66-1.66v-2.76l-3.33-3.34-4.42-6.09-1.66-1.66-1.68-2.77v-1.67l-2.77-3.32-3.33-1.67-1.66-1.11-1.11-3.32L180,986.38l-13.84-6.08-9.41,2.77H146.21v-4.42l19.94-13.84,4.42-6.1,25-13.88L200,946.5l1.66,1.11,2.78,1.66,1.66,3.33,1.66,1.67,1.66,2.76,1.12,1.67v2.77h1.66v3.34l1.66,1.66v2.78h1.66v3.32l1.12,1.66,3.32-1.66v-4.42l-1.66-3.33-1.66-4.42v-1.68l-1.12-4.42v-1.72l-1.66-1.66v-1.66l-1.66-1.66-7.75-6.09Zm164.47,129v-1.66l-1.66-1.66v-1.1l-13.84-13.85-6.08-1.67-7.75,1.67-13.84,7.2-10.53,11.07v2.78l-7.76,7.75-6.09,5-1.66,3.34-1.66,1.11-2.78,4.43v3.33l1.67,1.67,16.61,2.77h18.29v-4.42l-10.54-1.68h-15.5l-1.11-2.76v-3.33l1.11-1.11,3.32-2.22,1.67-1.12,8.86-7.75,1.66-1.66,6.1-7.75,3.33-1.66c4.42-4.43,8.86-7.75,13.83-8.86h7.75l7.2,7.76,3.33,4.42v2.78h1.66v3.32l1.11,3.33V1080l1.67,15.52v2.76h1.66v9.42l1.67,4.43v5l-1.67,1.12h-6.09l-9.41-8.87v-1.66h-1.11l-5-4.42-1.66-3.33h-1.11l-12.74-4.42v6.08h1.66l7.75,2.78,4.43,5,3.32,4.43h1.66l2.78,4.42,3.32,3.33,10.53,3.32,7.76-1.66,1.65-3.32v-4.43l-1.65-7.75v-7.75l-1.67-7.76v-7.75l-1.1-7.2v-3.33l-1.67-1.11v-3.32ZM916.06,456.36l16.61,10.53,3.31,4.42,6.1,5-6.1,6.09v2.77l9.43,3.31,2.77,2.78v1.66l3.32,3.32,1.1,2.77,3.33,2.22L957.6,504l2.75,4.42,1.67,1.66,3.33,5v5.55h-1.67L962,523.92V525l3.33,3.88,2.77,3.87v1.67l7.75,7.75,3.31,4.43v1.67l2.78,6.08v6.09l1.66,1.68,1.66,3.32v1.09h1.1v7.77l3.33,6.09v1.66l1.66,3.32,1.68,1.11v3.32l1.1,3.32,3.31,4.43v1.67l1.66,2.76,1.11,1.66v4.44h1.67v3.31l1.66,4.44v3.32h1.65V622l1.67,3.32L1008,627v1.1l1.68,1.66,1.66,4.44,1.65,3.31,1.1,1.66,1.66,2.78v1.66l1.68,4.42v1.67l1.66,6.08,1.66,3.33v2.77l1.1,5v2.76h1.67v5l3.32,6.09v7.76h1.11v2.76H1034v-2.76h-1.11v-5h-1.66v-2.77L1029.6,679v-7.76l-1.67-3.33-1.11-1.1v-5l-1.66-6.1V653l-1.66-3.32V648l-1.67-1.11v-3.31l-1.1-1.66-1.66-4.44v-1.65h-1.66V633l-1.68-1.66v-3.32l-1.66-1.1-2.75-9.42v-1.67l-1.66-1.66-1.68-2.78v-1.65l-4.42-9.41v-2.78l-1.66-1.66-1.67-4.42v-1.67l-1.11-1.66-1.66-2.77v-3.32l-1.66-1.66-2.75-6.09v-2.77h-1.68v-3.34l-1.66-4.41v-3.34l-1.66-1.1v-1.66l-1.67-3.33v-1.66l-1.1-2.77v-3.32l-1.66-1.1L982,542.2l-2.78-4.43-1.66-3.32L973.1,530l1.11-3.32v-4.43l-1.11-4.44-1.67-2.77h-1.66v-3.88h-1.65l-1.66-2.76L962,502.33,960.34,499l-6.07-8.86-1.68-1.67v-1.1l-2.75-5-1.66-1.67v-3.31l-1.67-1.11-2.78-5-1.65-2.76-7.76-7.75-4.43-6.1h-1.66l-6.09-5L914.39,453ZM402.65,253.1l-2.76-2.76v-1.67L398.22,247l-3.32-1.66-2.78,3.32L394.9,252l3.32,8.86V267h-1.66v1.67l-1.66,1.65-2.78,4.43-7.75-2.76-1.65-3.32L380,265.85v-1.68l-1.66-3.32V259.2H380v-4.44l1.11-1.66,1.66-2.76,9.4-1.67,2.78-3.32-6.09-1.11h-6.09L378.29,247l-1.67,1.66-3.32,4.43v12.75l1.66,4.42,1.66,1.67,1.67,2.76,4.43,1.67L394.9,278l1.66-3.31,4.43-4.43,1.66-4.42Z"/><path class="cls-1" d="M837.41,6.1V16.62l1.66,4.43,1.68,1.66L842.41,26v6.1l1.11,4.42V41l1.66,3.33V58.16h1.67v9.41l1.66,1.1V72l1.66,1.66v7.75h1.11v21.07l1.67,1.66v3.32l1.66,4.43v13.84l1.66,3.32v4.43l1.11,1.66-1.11,1.11,1.11,3.33v12.18h1.67v19.95l1.66,12.18v24.92l-1.66,2.78v31l-1.67,1.66,1.67,2.78v6.09h-1.67v11.07L856.27,267v3.33l-1.66,2.77v5l-19.94,7.76a44.54,44.54,0,0,0-12.2,4.43L807,293l-13.84,12.74V318l-1.66,1.66v2.78l-1.66,11.07L787,337.89l-1.66,4.43L783.71,344l-1.66,3.34v2.78l-1.12,1.66v4.42l2.78,1.67,5-3.33,1.12-1.11v-3.33l7.75,1.67,15.5,7.75c13.85,7.75,23.26,12.18,26,12.18l3.34,1.67,13.84,4.42,8.86,4.43,9.41,6.65v2.77h-7.75L864,394.94l22.7,12.18L905,421v1.66l-1.11,1.12L891.12,421l-4.42,2.78,6.1,3.32c7.75,1.66,15.5,5,19.93,9.43l15.5,14.95,6.09,5,4.43,6.09h1.66l-1.66-5-13.84-13.84-1.11-7.18-3.33-1.67-2.77-6.1L910,417.65,890,401l-1.67-1.66,2.77-3.32v-2.78l-8.86-6.07-5-5L866.76,375l-43.2-15.5L808.61,350v-2.78l10.52,1.11h7.77V345.6l-1.68-1.68L807,340.61l-7.75-6.09,1.66-1.12,13.84,2.79h4.42L833,339.51h4.42l3.34-1.67-1.67-3.32-29.35-6.1-8.87-2.77L802.5,324l2.77-1.67L822.43,324l26,7.76L859,336.17l3.32-1.66v-2.77l-1.66-1.68L851.25,324l-13.85-3.32-34.88-4.41-1.66-1.67,1.66-1.11h7.2l13.84-1.66h23.26v-1.66L833,306.81H805.28l-1.66-1.11,9.41-5,16.62-6.08,15.51-2.78,11.07-6.09V284.1l6.09-9.41v-6.08l1.66-1.67v-44.3l1.12-3.34L864,216.54l1.12-7.77V163.91H864V147.3l-1.66-12.19v-7.75l-1.66-7.75v-7.75H859v-6.09l-1.67-3.32V98l-1.11-4.42V68.65l-1.66-1.1V58.16l-1.66-3.34V50.41l-1.67-1.67V38.22l-1.08-1.67V30.46l-1.67-1.66V27.14l-1.66-2.78V22.71L839.06,1.1,834.65,0,823.56,2.77,820.78,6.1l-1.66,2.76-1.66,1.68L814.7,15,808.61,28.8l-3.33,3.34-2.76,6.08-1.66,1.67-9.41,12.18-1.67,2.77-4.42,5v2.77L782,65.91,771.51,85.85l-1.68,4.42-1.66,1.67-1.11,3.33L765.4,99.7l-3.33,2.77L761,105.8l-1.66,1.66L756,113.55v1.66l-1.11,1.11-3.33,9.42-3.32,1.66v1.66l-2.78,6.09-1.66,1.11-1.66,3.33v1.66L741,145.67v1.67L739.33,149v2.76l-1.66,1.68v4.42L736,161.21v4.43l-6.09,12.17v1.68l-1.66,1.66-6.1,9.41L720.5,195l-1.12,1.66-1.66,6.09-4.42,6.08-1.68,6.1-1.6,1.64-1.66,2.76-2.78,5-1.66,1.11v1.67l-1.66,3.32v2.78l1.66,11.07,10.53,13.84,5,4.42v1.67h1.11l1.67,4.43,5,7.75v7.74l-5-1.65-6.09-6.09-24.36-13.85L684,270.29l27.68,19.93,7.75,9.42,2.78,2.77,3.34,1.66,1.66-3.32-9.43-8.86-12.18-9.42-7.75-7.76v-1.66l-1.67-1.1,7.75,4.42,3.34,3.33,6.09,4.42,1.1,1.68,7.75,4.42,3.34,2.78,1.66,3.32v4.43l-1.66,3.32,1.66,1.67v4.42h-1.66l-5-1.66-27.14-19.94-7.75,1.66,4.43,4.43,15.5,9.41,1.67,2.78-3.34-1.12-39.86-6.08-9.42-3.33-8.87-1.66L644.12,293h-26l-6.65-2.78v-4.42l5-5,15.5-4.42,7.2-1.68L640.8,272l-4.43-1.66H632L627,272v1.1l-2.77,1.66-9.42,1.68v-1.68h1.67l2.77-2.76H627l5-1.66,12.18-6.1v-1.67h-5l-7.2,3.34-15.5,1.1-5-2.77-2.76,6.1H607l1.66,2.76v6.65L607,282.46l-1.66,7.75-6.1,2.78-29.35,3.32-1.11-6.09V267l1.11-1.1v-7.77l1.66-3.33-1.66-1.66v-4.43L568.8,247l-1.67-2.77,1.67-3.33-11.08-6.09-6.1-4.42-1.1-1.66v-1.67l-1.66-2.77V213.22l1.66-4.43v-3.33l1.1-1.11,3.34-6.64V196.6l1.1-3.33v-1.66l1.67-1.11,1.67-3.33v-4.42l1.66-1.66v-4.43l2.77-11.07v-4.43l1.67-4.42,1.66-3.33v-1.67l2.77-4.43V144l1.67-1.12v-3.32l1.66-1.66v-1.67l1.66-2.77,1.66-1.66V129l1.12-1.66V124l1.66-1.65v-2.77l1.66-1.68,6.09-12.17,3.32-9.43,1.12-1.1,1.66-3.34,1.66-1.66,4.43-8.86,6.1-6.64,7.75-10.54,1.66-2.76,3.32-5,12.19-12.19L632,45.91l1.12,2.76V52l1.66,1.66v6.09l1.66,4.43v1.67l1.66,4.43V84.14l1.12,3.32v8.86l1.66,3.34v21.6l1.66,2.76v1.68l1.66,1.66v7.75l1.67,2.78v19.93l1.11,3.34v18.28l-1.11,1.66v16.61l1.11,1.66v7.75l1.66,3.34v2.78l1.66,1.66v12.19l-4.42,9.41-27.69,13.84-5,4.42-1.68,3.33,1.68,1.11v3.32h3.32l13.84-3.32h6.09l7.75-1.11-5-3.33H628.7V253.1l9.41-4.43L652,239.26l1.1-2.77,3.32-17.18v-4.42l-1.66-1.67V194.94l-1.66-1.67V163.91l-1.1-2.76V147.3h1.1l-1.1-1.66V125.7l-1.68-3.33V111.85l-1.66-2.78v-1.66l-1.66-5v-6.1l-1.11-2.77v-5l-1.67-2.78V70.3l-1.66-4.43v-4.4l-1.66-3.32V52.06L638,46V44.31L636.36,41V39.89l-1.66-3.34H627L616.42,47.64h-1.65v2.77l-4.42,4.43-5,9.41-8.86,9.42-5,8.87-6.09,7.75L583.77,92v1.67l-1.11,2.77-1.66,6.1-1.67,1.66v1.66l-2.77,4.43v5L573.23,118v1.68l-1.66,2.77-1.66,1.65v3.34l-1.11,2.78v3.32l-3.33,4.43v1.66l-1.66,3.32V144l-1.11,3.32L561,149v2.76l-1.66,5L556,159.56v3.33l-1.1,2.77v1.66L553.27,169v7.75l-1.67,2.77v4.43l-1.1,1.67v6.09l-1.67,5-3.33,6.09v1.66l-3.33,6.1v2.78l-1.1,5v4.44l1.1,2.77,1.66,1.67v3.32l3.34,2.78,18.28,12.18-2.78,7.75-21.6-10.52-12.75-3.33c-1.11-1.11-2.77,0-4.42,1.67l6.08,4.42c5,0,9.42,1.66,12.19,5l-4.42,2.77-2.78,5H545.5l9.42,1.11,7.75,3.32L561,265.91,548.82,267l-6.65,1.68v1.66h8.31l4.43-1.66,6.09,1.66v4.42l-1.67,3.33-15.51,1.67-1.66,2.78,1.66,1.65,6.65-1.65,5.53-2.78,5,1.12v5l-5,2.78,1.67,4.42v3.33l-4.42,1.66-1.68-3.33,6.1-1.66L556,288.64l-8.85,4.42c-7.77,1.66-10.54,3.33-10.54,5l-9.41,4.42-1.67,1.66-2.77-1.66,1.11-4.42v-5l-1.11-2.77-17.16-4.43v-5l-6.09-12.19-12.19-15.51-7.76-4.43-4.43-9.41-7.76-7.75v-2.78l-1.66-1.66-1.66-4.42-8.86-12.19-9.42-7.76L425.84,190.6v-3.33l-1.68-3.33-1.66-1.1v-15.5l-1.66-1.67V164l-1.1-2.76v-1.67l-1.59-4.48h-1.66v-3.34l-2.77-4.43L412.05,144v-1.11l-9.41-20.49v-2.78L401,118l-1.11-4.43-1.66-1.66h-4.43l-3.32,1.66v2.78L388.79,118l-1.68,3.34v4.42L386,129v6.08l-1.66,4.43v12.19L381,155.07l-2.77-5-6.09-12.19v-1.66l-1.67-2.78V131.8L368.84,129l-4.43-5h-3.34l-1.66,3.33v2.78l-1.11,3.32v4.43l-1.66,3.32v13.85L355,159.51v9.41l1.67,1.67H355v8.86h1.67v9.41l1.66,1.66v2.78l1.11,3.32V227.1l-8.86,18.27v7.75l-1.66,1.67v9.41l3.32-1.66,1.11-3.33,1.65-1.12,1.67-3.33,1.66,1.66v1.67L355,264.17l1.67,2.78,1.66,1.67h1.11v1.67h-1.11l-1.66,2.76-3.33,1.66-1.11-1.66V262.52l-3.33,1.67h-1.65l1.67,4.43v7.75l1.66,3.33v8.86l1.66,4.43v12.73H350.6v8.87l-1.66,1.66v9.41l1.66,2.78v5l1.66,2.79,1.11,7.74,1.67,3.33,3.32,8.87,2.78,3.32,3.33,6.09-6.1,6.09L355,376.05H350.6l-4.43,3.34-1.66-3.34v-4.43L341.19,370l-2.78,5-3.32,6.1v1.1l-9.42,9.42L322.9,401l-3.33,2.77-2.77,5-3.34,6.09-1.66,1.11v3.33l-1.1,1.66L309,423.69l-3.34,5v1.11L304.59,432l-5,8.85-2.77,2.77-3.33,5v1.1l-2.77,6.65-1.67,1.1-1.66,3.34-1.66,1.66-1.11,4.43L283,470.21v3.33l-1.66,2.77v2.78l-1.66,3.32v1.66L278,487.4v3.89l-1.12,3.32V498L275.21,504v2.78l-1.66,3.32v5l-1.66,1.11-6.09,8.86L261.37,529l-37.11,10L206,550v2.77l-1.67,3.34-1.67,1.66v13.84l1.67,2.78v5l-2.77,4.43-5,13.83v1.67l-4.42,6.08h-9.37l-1.1-1.66-5-1.66h-2.78l-5,1.66,1.66,3.33,1.66,1.11,12.19,3.32,7.75,2.78,1.66,3.34v12.18l-1.66,1.67L175,634.15l-32.11,12.73v2.78l1.66,3.32,46-15.5,3.32,3.33-1.66,2.77v3.33L190.54,648v1.66L188.87,653v2.77l-1.11,1.67v3.32L180,665.2l-5,4.38,12.74-1.66,1.11,1.66,1.67,3.34,1.66,4.43V679l1.66,2.76v1.68l1.68,5v1.12l1.1,3.32v1.66l1.67,1.12L200,699l-1.66,3.33-13.85,2.77-7.75,3.33-2.77,2.77v7.75l1.11,1.66-1.11,1.67L158.44,745l-7.75,5-7.75,7.2-4.43,3.33v4.42l-1.66,1.67-7.76,6.08-2.78,4.43-21.6,23.26L90.87,811.4l-7.75,4.42-7.76,2.78,3.34,6.63L63.19,840.18l-3.33,5v1.1l1.66,5-1.66,1.1-6.09,7.76L51,863.45l-3.33,6.08v7.75l-4.42,5-1.66,3.89-2.8,3.31v3.32l-1.67,3.34v2.77L26,910v2.77l-8.85,12.19v4.43L15.52,931v3.32l-1.67,6.09V951L9.42,957l-1.66,1.67L6.1,961.48l-1.11,5-1.67,1.66-1.66,4.43H3.32v2.76L5,978.66v4.42l-1.67,3.33v6.08l-1.66,2.78v1.66L0,1000.26V1003l1.66,1.66L5,1001.92v-6.64l1.11-1.11v-3.33l1.66-2.77v-9.41l1.66-3.34,1.67-1.1,2.77-5v-1.11l-1.66-3.32,1.66-1.68L20,954.28,26,947.63l-2.77-6.09h1.67L49.3,931h9.41l10.53,7.75,3.32,2.77v3.29l1.11,1.66,7.75,6.09h6.1l5-6.09v-3.32l-5,1.66-1.11,1.67-5-5v-1.11l-2.76-5-3.34-2.77-2.77-6.09-1.66-1.66-11.08-3.33-15,3.33-6.07,4.42-11.09,5-2.76-1.67v-5l1.1-2.78H27.7v-3.31l1.67-4.42,4.43-4.43L35.46,910l3.33-3.33L43.21,905l6.09-6.09,6.09-5c4.42-2.78,6.08-4.43,7.75-4.43l17.17-9.41,2.78,3.32v4.43l1.66,6.09V900l-1.66,7.77L84.75,910v5.54h1.66v18.82l1.11,6.09v4.42l5-1.66,1.11-1.66,1.66-2.78V924.89l-1.66-3.32v-7.76H92.5V883.35l-1.66-1.12v-3.32l-3.32-5-6.1-1.12-6.08,2.78-1.67,1.66L51,889.46l2.78-9.41v-2.78L55.41,874l12.19-8.87v-3.32H63.15l-3.33,1.66,1.67-3.32,7.75-7.77,13.85-10.52,1.66-6.09H78.66v-1.66L92.5,821.87l1.11-4.42L103,808,123,794.2l11.09-10.54L141.8,777l12.19-7.2,38.21-15.5,20-4.42,1.66,4.42,2.78,1.66,21.6,6.09c7.75-3.32,12.18-3.32,15.51,0l12.19,6.09,9.41,2.77,7.75,6.09,7.75,5L303,792.52l7.76,5,7.75,2.77,13.84,9.42,4.42-1.67-3.32-4.42-8.87-6.09-13.83-6.65-33.79-26L249.26,756h-9.42c-2.78-3.32-6.09-5-9.42-5l-8.86-2.78-15.5-1.66L178.36,751c-7.75,3.32-13.84,6.08-17.16,7.75l-7.2,5-7.75,1.11v-2.77l13.84-12.19h1.11l6.64-5,1.11-2.78v-1.67l5-4.43,4.43-7.75,7.75-6.1,1.66-3.32,2.78-4.43,1.66-3.32,13.85-4.43,1.66-1.66-3.32-4.43v-3.32l1.66-2.78-1.66-7.75-1.68-1.66-6.09-12.19v-7.76l-1.1-4.42V653l1.1-3.33V648l1.68-2.78v-3.32l1.66-1.11V633l1.66-6.09V617.5L200,614.16v-2.78l1.66-3.32v-4.43l1.1-3.32V599.2l1.68-3.33,1.66-1.66v-2.78l1.66-3.32,6.09-6.09-3.32-9.41-1.12-10.53,6.09-10.53,6.09-1.67,8.86,4.43c5,0,9.41,3.34,13.84,7.76v1.66l5,8.87v6.63l1.1,2.78,5-2.78V568.15L252,562.07l-13.84-12.2-8.86-4.42,4.42-3.34,4.43-1.66h3.32v3.32h6.09l7.76-1.66,1.66,1.66v2.78h18.28l1.66,5-3.32,2.78,11.07,5v1.1L283,562.06v1.66c1.66,1.66,2.77,2.76,7.75,2.76l1.11-2.76-4.42-4.42V556h1.66l-1.66-1.67-6.09-8.85L278,542.11l-6.08-1.66-4.42-4.34v-4.43l10.53-9.41,3.32,1.66h3.33l1.11-1.66v-7.2h1.66v-8.3l1.67-2.77v-1.66L290.8,499v-6.09l-5,5v3.32l-1.13,1.12L283,510.09v2.76l-1.66-1.66,1.66-2.77v-6.08l1.67-7.77v-4.42l1.11-5v-1.11l1.66-3.32v-3.33l1.66-1.11v-2.78l2.78-6.63,1.66-1.67L303,446.94l1.67-1.12,2.77-6.63,1.68-4.43,2.76-5V427h1.66l3.34-7.75,4.42-7.75,1.63-1.66,2.77-6.1,3.33-4.43,3.32-3.32v5l1.12,2.76,3.32-4.42,2.78-7.75,1.66-1.66v-2.78h5l1.12,2.78,5-2.78,8.86-9.42V376l6.09-6.08L380,371.6l2.78-1.66-9.43-2.78-2.77-6.09-3.33-3.32-6.09-12.19-1.66-1.67v-3.32l-1.11-1.11v-3.32l-1.66-2.79V285.72H355v-5l1.67-1.11,4.42-1.68,3.34-3.32v-8.85h1.66l-1.66-5v-6.09l-3.34-2.77-4.42-1.67v-5l7.76-13.84,2.76-2.77V227l1.68-1.66-1.68-2.77v-1.67l-1.1-1.67v-26l-1.66-1.66v-4.42l-1.68-1.67V182.7l-1.66-5V155.09l1.66-1.67v-7.76l1.68-2.77v-5l2.76,3.33v1.66l1.68,1.11v1.66l1.65,1.67V149l1.67,1.1v1.66l1.1,1.68,3.34,9.41,1.66,2.78L380,167.3v21.6h-1.66v27.7H380l2.78-3.33h1.66v-26l1.66-4.43V173.4l1.1-10.53v-6.08l1.68-1.67v-3.33h1.66V133.51h1.66v-3.32l1.67-1.12v-3.32H395l3.32,3.32,1.67,2.78v1.66l1.11,1.66,1.66,2.78v1.66l1.66,1.66v1.67l1.67,4.42V149h1.11v2.76l1.66,3.34v1.66h1.66v2.77l3.34,3.33v2.77h1.1v11.08l1.66,6.09v2.77l1.67,5v1.11l2.77,1.66,3.33,4.43L446,210.54l9.41,8.85v3.33l1.11,2.78h1.66v3.32l1.67,1.67v1.11l4.42,5,1.66,2.78,1.67,1.66,1.11,3.33,1.66,1.11v1.66l3.33,5,4.42,4.42,4.43,2.78,3.33,1.66,1.67,3.32,2.76,2.78,3.34,7.75h1.66v3.32l1.11,1.68,1.66,4.42v1.68l2.77,2.77v1.67l11.08,4.42,1.67,5-1.67,1.11-1.66,3.32-52.06,19.94c-4.43,1.66-9.41,3.34-10.53,4.43L412.19,344l-15.5,10.53-2.78,3.33h-1.66l-1.66,3.32L387.25,364l-1.1,3.32-3.33,2.78-2.77,1.66v1.66l1.11,2.78,6.08-2.78L400,361.24l19.95-15.5,1.1,1.66,7.75-1.66,33.78-17.18,92.49-26,47.64-2.78,73.66,7.2h4.42l6.09,1.66L690.2,312l-1.67,2.77,6.09,5-7.75,2.77v3.33h15.5l9.41,1.67h8.87l-1.12-6.65v-1.11l2.78-1.66v2.77h-2.78l1.12,6.65,3.33,2.77,4.43,1.67,1.66-3.34v-7.75l1.66-2.77V312l1.67-3.32v-15.5l1.11-4.43V278.17l-2.78-6.07-1.66-1.66-2.77-6.1-1.67-6.09-3.33-5-6.09-4.42-4.43-7.75v-2.78l-1.76-3.5,1.66-1.66V231.5l1.68-2.78,1.1-1.66v-2.77l7.75-11.08v-2.75l1.67-3.34,1.67-1.66,2.77-4.42,1.66-4.43v-5l3.33-6.09,1.11-4.43,1.66-1.66,5-8.86V164l2.77-6.09v-1.1l1.67-3.32v-3.35l1.66-1.1,1.11-3.34v-2.78l1.66-3.32v-1.66l3.33-6.09L756,129V125.7l5-6.09,1.11-3.32v-2.78l3.33-3.32,4.42-10.53,5-4.42L776,91.9V90.24l1.66-1.67,1.68-2.77L781,81.38l2.77-6.64,1.67-1.11,12.18-18.84L802.52,46,807,41l2.77-6.09,3.33-4.42,1.66-3.33L816.37,26l4.43-9.41,2.77-3.33,5-7.2L833,4.44Z"/><path class="cls-1" d="M393.79,262.51l-1.67-6.09L386,254.76l-1.67,1.66-1.65,2.78,1.65,5L386,267h1.1l5-1.1h1.67Z"/></g></g></svg>